<svg id="visual" viewBox="0 0 540 960" width="540" height="960" xmlns="http://www.w3.org/2000/svg"
    xmlns:xlink="http://www.w3.org/1999/xlink" version="1.1">
    <rect x="0" y="0" width="540" height="960" fill="#1e1e1e"></rect>
    <g fill="none" stroke="#7934FA" stroke-width="2">
        <circle r="18" cx="515" cy="456"></circle>
        <circle r="7" cx="454" cy="343"></circle>
        <circle r="8" cx="255" cy="517"></circle>
        <circle r="12" cx="142" cy="230"></circle>
        <circle r="11" cx="368" cy="592"></circle>
        <circle r="13" cx="363" cy="902"></circle>
        <circle r="16" cx="111" cy="957"></circle>
        <circle r="15" cx="329" cy="285"></circle>
        <circle r="13" cx="154" cy="570"></circle>
        <circle r="14" cx="340" cy="690"></circle>
        <circle r="6" cx="98" cy="78"></circle>
        <circle r="13" cx="355" cy="405"></circle>
        <circle r="9" cx="411" cy="581"></circle>
        <circle r="10" cx="74" cy="894"></circle>
        <circle r="14" cx="1" cy="868"></circle>
        <circle r="12" cx="377" cy="324"></circle>
        <circle r="13" cx="368" cy="52"></circle>
        <circle r="9" cx="15" cy="785"></circle>
        <circle r="8" cx="202" cy="46"></circle>
        <circle r="8" cx="148" cy="288"></circle>
    </g>
</svg>